<svg version="1" xmlns="http://www.w3.org/2000/svg" width="682.667" height="682.667" viewBox="0 0 512.000000 512.000000"><path d="M48.5 64.9c-.6.5-3.1 2-5.6 3.4-9.8 5.3-9.5 4.5-3.6 10 2.9 2.6 8.7 8.3 13.1 12.5l7.8 7.7h11.4c6.3.1 11.4-.1 11.4-.2 0-.3-7.6-10.3-19.8-26.1-5.9-7.7-6.6-8.2-10.1-8.2-2 0-4.1.4-4.6.9zM261.9 65.4c-.5.5-2.6.9-13.4 2.6-3.8.6-12.4 1.9-19 3s-13.8 2.2-16 2.5c-2.2.3-6.2 1-9 1.5-2.7.5-6.8 1.2-9.1 1.5-12 1.6-12.9 2-12.8 4.5.1 3.9 1.4 16.2 1.8 16.9.2.3.7 3.7 1.1 7.6.4 3.8.8 7.2 1 7.5.1.3.6 3.5.9 7.2.4 3.7.9 7.7 1.1 9 .2 1.3.6 3.9.9 5.8.3 1.9 1.5 6 2.6 9 1.2 3 2.3 6.2 2.6 7 .3.8 4.2 11.1 8.7 22.9 5.7 14.7 8.8 21.5 9.9 21.7.8.1 3.5-.2 5.9-.6 2.4-.5 6.2-1.1 8.4-1.4 2.2-.4 9.6-1.5 16.5-2.7 6.9-1.1 14.1-2.2 16-2.5 1.9-.3 5.8-.9 8.5-1.4 2.8-.5 6.6-1.1 8.5-1.4 1.9-.3 5.3-.8 7.5-1.1 2.2-.4 4.9-.8 6-.9 1.8-.3 2-1 1.9-6.7 0-3.5-.3-10-.7-14.4-2.2-24.5-2.8-22 5.3-22.9 2.5-.2 10.4-1.2 17.5-2 15.9-2 19.6-2.4 26-3.1 2.8-.3 6.1-.8 7.5-1 1.4-.2 5-.7 8-1 3-.3 6.5-.7 7.8-1 1.3-.2 5.3-.7 9-1 3.7-.3 7.4-.8 8.2-1 .8-.2 4.2-.7 7.5-1.1 17-1.8 58.6-7.2 59-7.6.3-.3-2.5-11.8-6.2-25.7l-6.8-25.2-3.5.6c-1.9.4-27.8 6.1-57.5 12.7s-55.1 12.2-56.3 12.4c-1.3.3-10 2.2-19.3 4.3-11.9 2.7-17.2 3.5-17.8 2.7-.4-.6-4.3-9-8.5-18.6-7.6-17.3-8.8-19.5-9.7-18.6zM116.7 74.7c-.1.1-7.3.3-15.9.5-8.7.3-16 .7-16.3 1-.4.4 4.1 7.1 15.9 23.3 9.2 12.6 18.6 26.1 18.6 26.7 0 .5-2.4.9-5.2.9-2.9.1-5.7.2-6.3.4-.5.1-1.4.3-1.8.3-.5.1 5 6.2 12.1 13.4 7.1 7.3 15.3 15.8 18.2 18.8 2.9 3 11.6 11.9 19.3 19.8l14.1 14.3 7.5.1c4.2 0 8.6-.1 9.8-.1 2-.1 1.2-1.8-8-15.9-18.2-28-24.5-37.7-25.7-39-1.3-1.4-1.1-1.5 8.2-1.3l6.7.1-1.7-3.8c-1-2-8-16.4-15.7-32l-14-28.2-9.8.2c-5.4.2-9.9.4-10 .5zM33.4 114.1c-.2.3 9.5 7.2 21.4 15.3 11.9 8.1 24.9 16.9 28.7 19.6 3.9 2.7 19.4 13.2 34.5 23.4l27.5 18.6-8-7.6c-4.4-4.2-19.9-19.2-34.5-33.4-14.6-14.2-29.2-28.4-32.4-31.5l-5.9-5.6-15.5.3c-8.4.2-15.6.6-15.8.9zM62.6 178.3c-9.1 16.6-8.7 15.7-6.8 15.8 13.9.4 55.2.2 55.2-.4 0-.4-.4-.7-.9-.7-.8 0-23.1-10.5-38.2-18l-5.9-2.9-3.4 6.2zM191 212l-85.5.5v25l-52.9.3-52.8.2.6 9.4c1.4 22.5 8.3 39.7 20.8 51.8 9.1 8.9 33.6 22.2 52.8 28.8 5.2 1.7 10.4 3.6 11.5 4.1 1.1.4 4.7 1.5 8 2.4 3.3.9 7.4 2.1 9.1 2.6l3 .9-.1 7.6c-.1 4.2.3 7.8.8 8.1.6.4 14.1.6 30 .6h28.9l3 4.6c2.6 4 2.9 5.3 2.6 10.4-.5 7.2-2.7 10.3-10.2 14.1l-5.6 2.9-24.8.1h-24.7V448h334.2l-.1-30.8-.1-30.7-27.3-.1c-14.9 0-27.5-.3-27.8-.7-.7-.6-.6-12.3 0-17.2 4.3-30.8 18.9-55.1 43.7-73 8.6-6.2 21.9-13.1 31.7-16.4 12.8-4.3 38-10.5 47.5-11.7 1.6-.2 3.3-.6 3.8-.9.5-.4.9-6.9.9-14.6V238h-36c-28.1 0-36-.3-36.1-1.3 0-.6-.1-6.5-.1-13l-.1-11.7h-33.1c-18.2 0-54.9-.1-81.6-.3-26.7-.1-87 0-134 .3z"/></svg>